<?xml version="1.0" standalone="no"?>
<!DOCTYPE svg PUBLIC "-//W3C//DTD SVG 20010904//EN"
 "http://www.w3.org/TR/2001/REC-SVG-20010904/DTD/svg10.dtd">
<svg version="1.0" xmlns="http://www.w3.org/2000/svg"
 width="546.000000pt" height="546.000000pt" viewBox="0 0 546.000000 546.000000"
 preserveAspectRatio="xMidYMid meet">

<g transform="translate(0.000000,546.000000) scale(0.100000,-0.100000)"
fill="none" stroke="#6A0DAD">
<path d="M0 2730 l0 -2730 2730 0 2730 0 0 2730 0 2730 -2730 0 -2730 0 0
-2730z m3020 1765 c548 -82 1013 -407 1282 -895 152 -277 229 -647 199 -965
-22 -236 -74 -422 -172 -619 -175 -353 -437 -615 -789 -791 -346 -173 -760
-220 -1165 -131 -486 106 -945 473 -1157 926 -62 132 -68 147 -98 244 -62 202
-85 378 -77 581 15 371 136 699 370 1005 42 55 214 231 259 265 7 6 40 31 73
56 206 157 502 282 766 322 129 20 381 21 509 2z" fill="#6A0DAD"/>
<path d="M2525 4415 c-350 -57 -647 -202 -894 -439 -141 -135 -280 -326 -351
-482 -17 -35 -30 -67 -30 -70 0 -3 -9 -25 -20 -48 -26 -59 -67 -202 -87 -306
-22 -109 -24 -451 -5 -560 49 -274 174 -556 335 -757 159 -198 361 -358 592
-469 327 -157 685 -201 1043 -128 359 73 705 280 941 564 170 203 295 464 353
735 30 140 33 496 4 625 -51 229 -98 355 -197 526 -253 439 -691 736 -1188
809 -126 18 -382 18 -496 0z m345 -780 c334 -38 628 -116 938 -249 140 -59
196 -91 224 -124 78 -94 58 -218 -48 -299 -32 -24 -47 -28 -98 -28 -51 0 -75
7 -151 44 -548 264 -1175 334 -1825 205 -137 -28 -172 -26 -235 11 -127 73
-106 292 33 351 53 22 548 100 687 108 103 6 344 -3 475 -19z m-114 -675 c318
-30 679 -132 959 -272 54 -27 112 -85 126 -125 24 -74 -28 -195 -106 -243 -53
-32 -106 -24 -244 39 -301 139 -632 211 -967 211 -171 0 -305 -14 -485 -50
-178 -37 -225 -38 -269 -7 -57 38 -74 70 -78 146 -5 82 17 132 77 180 49 39
64 44 226 77 247 49 530 65 761 44z m79 -650 c28 -6 86 -17 130 -26 175 -34
414 -123 550 -203 47 -29 65 -47 87 -90 48 -91 33 -193 -35 -245 -48 -37 -116
-35 -215 5 -418 171 -549 202 -827 202 -178 0 -309 -16 -455 -56 -181 -50
-277 -10 -288 119 -8 96 43 186 127 221 36 15 216 61 241 61 8 0 47 5 85 11
39 6 88 12 110 15 74 7 440 -3 490 -14z" fill="#6A0DAD"/>
<path d="M2345 3569 c-131 -11 -281 -33 -537 -78 -104 -18 -138 -52 -138 -137
0 -94 78 -136 190 -104 81 23 357 60 515 68 253 14 471 -1 712 -49 259 -51
452 -113 691 -225 40 -19 88 -34 106 -34 87 0 149 125 96 193 -28 35 -103 76
-255 136 -210 85 -452 156 -610 181 -38 6 -90 15 -115 21 -66 13 -399 39 -488
37 -42 0 -117 -4 -167 -9z" fill="#6A0DAD"/>
<path d="M2255 2875 c-181 -20 -368 -56 -416 -81 -49 -25 -69 -61 -69 -125 0
-47 4 -62 21 -78 32 -30 71 -34 139 -17 107 28 283 55 438 67 361 30 783 -46
1142 -207 131 -58 172 -65 207 -33 49 47 67 125 37 167 -27 39 -201 118 -419
190 -346 116 -716 156 -1080 117z" fill="#6A0DAD"/>
<path d="M2325 2243 c-141 -14 -391 -69 -420 -93 -43 -36 -60 -153 -27 -183
25 -23 64 -21 185 7 204 49 295 59 501 53 194 -5 304 -21 451 -67 65 -20 256
-91 320 -120 164 -73 214 -62 215 45 0 73 -25 107 -112 151 -181 91 -424 167
-639 198 -98 15 -362 20 -474 9z" fill="#6A0DAD"/>
</g>
</svg>
